<?xml version="1.0" encoding="utf-8"?>
<!-- Generator: Adobe Illustrator 25.2.0, SVG Export Plug-In . SVG Version: 6.00 Build 0)  -->
<svg version="1.1" id="Layer_1" xmlns="http://www.w3.org/2000/svg" xmlns:xlink="http://www.w3.org/1999/xlink" x="0px" y="0px"
	 viewBox="0 0 32 32" style="enable-background:new 0 0 32 32;" xml:space="preserve">
<style type="text/css">
	.st0{fill:#8BCBF0;}
</style>
<path class="st0" d="M20.9,8.5H6.6l3.9-3.9c0.7-0.7,0.7-2,0-2.7c-0.7-0.7-2-0.7-2.7,0L0.6,9.1c-0.7,0.7-0.7,2,0,2.7L7.8,19
	c0.4,0.4,0.9,0.6,1.3,0.6c0.5,0,1-0.2,1.3-0.6c0.7-0.7,0.7-2,0-2.7l-3.9-3.9h14.3c4,0,7.3,3.3,7.3,7.3s-3.3,7.3-7.3,7.3H5.8
	c-1.1,0-1.9,0.9-1.9,1.9s0.9,1.9,1.9,1.9h15.1c6.1,0,11.1-5,11.1-11.1S27,8.5,20.9,8.5z"/>
</svg>
