<?xml version="1.0" encoding="utf-8"?>
<!-- Generator: Adobe Illustrator 25.2.0, SVG Export Plug-In . SVG Version: 6.00 Build 0)  -->
<svg version="1.1" id="Layer_1" xmlns="http://www.w3.org/2000/svg" xmlns:xlink="http://www.w3.org/1999/xlink" x="0px" y="0px"
	 viewBox="0 0 32 32" style="enable-background:new 0 0 32 32;" xml:space="preserve">
<style type="text/css">
	.st0{fill:#FFFFFF;}
</style>
<g>
	<path class="st0" d="M18.7,19.9c0-0.6-0.5-1-1-1H6.9c-0.6,0-1,0.5-1,1c0,0.6,0.5,1,1,1h10.7C18.2,20.9,18.7,20.5,18.7,19.9z"/>
	<path class="st0" d="M6.9,15.8h10.7c0.6,0,1-0.5,1-1c0-0.6-0.5-1-1-1H6.9c-0.6,0-1,0.5-1,1S6.4,15.8,6.9,15.8z"/>
	<path class="st0" d="M5.9,25.1c0,0.6,0.5,1,1,1h8.8l0.5-2.1H6.9C6.4,24.1,5.9,24.5,5.9,25.1z"/>
	<path class="st0" d="M22.6,28.6c0,0.3-0.3,0.6-0.6,0.6H2.7c-0.4,0-0.6-0.3-0.6-0.6V3.4C2,3,2.3,2.7,2.7,2.7h12.1v5.2
		c0,1.5,1.2,2.7,2.7,2.7h5.2v6.1l2.1-2.1v-4.4c0-0.7-0.3-1.4-0.8-1.9l-6.9-6.9c-0.5-0.5-1.2-0.8-1.9-0.8H2.7C1.2,0.7,0,1.9,0,3.4
		v25.3c0,1.4,1.2,2.7,2.7,2.7h19.3c1.5,0,2.7-1.2,2.7-2.7v-3.4l-2.1,2.1V28.6z M16.8,4.2l4.4,4.4h-3.8c-0.4,0-0.6-0.3-0.6-0.6
		L16.8,4.2L16.8,4.2z"/>
	<path class="st0" d="M18.1,27.2l2.6-0.6c0.1,0,0.2-0.1,0.3-0.2l0.7-0.7l-2.9-2.9l-0.7,0.7c-0.1,0.1-0.2,0.2-0.2,0.3l-0.6,2.6
		C17.2,26.9,17.6,27.3,18.1,27.2z"/>
	<polygon class="st0" points="19.9,21.8 22.8,24.7 29.4,18 26.6,15.1 	"/>
	<path class="st0" d="M31.8,14.8l-2-2c-0.2-0.2-0.6-0.2-0.8,0L27.7,14l2.9,2.9l1.3-1.2C32.1,15.4,32.1,15,31.8,14.8z"/>
</g>
</svg>
